<svg xmlns="http://www.w3.org/2000/svg" xmlns:xlink="http://www.w3.org/1999/xlink" viewBox="0 0 104 104"><defs><style>.cls-1{fill:none;}.cls-2{fill:#fff;stroke:#4e7ac6;stroke-miterlimit:10;stroke-width:4px;}.cls-3{clip-path:url(#clip-path);}.cls-4{fill:#29abe2;}.cls-5{fill:#0071bc;}</style><clipPath id="clip-path"><rect class="cls-1" x="11.82" y="26.51" width="66.12" height="50.99"/></clipPath></defs><title>birth</title><g id="Layer_2" data-name="Layer 2"><g id="main_content" data-name="main content"><g id="content"><g id="breakpoints"><g id="birth_shape" data-name="birth shape"><path class="cls-2" d="M54.27,3.33A4.56,4.56,0,0,0,50.92,2C23.73,3,2,25,2,52c0,27.62,22.78,50,50.88,50,.87,0,1.73,0,2.59-.07a4.67,4.67,0,0,0,3.17-1.47l42.15-45.29a4.47,4.47,0,0,0-.14-6.25Z"/><g class="cls-3"><g class="cls-3"><path class="cls-4" d="M74.73,31.61c-.26-.31-4.63-5.44-10.35-5.09-3.18.2-4.23,1.93-8.36,3.52a25.84,25.84,0,0,1-11.15,1.57,38.57,38.57,0,0,1-10.35-2c-4.77-1.61-6-3.08-9.16-3.13-5.88-.09-10.11,4.81-10.35,5.09-4.17,4.91-3.8,12-1.59,16.83C16.43,55,23.65,59.12,31.74,59H58c8.09.12,15.32-4,18.31-10.56,2.21-4.81,2.58-11.91-1.59-16.83"/><path class="cls-5" d="M44.88,77.49A18.84,18.84,0,1,1,64,58.66,19,19,0,0,1,44.88,77.49m0-33A14.14,14.14,0,1,0,59.26,58.66,14.28,14.28,0,0,0,44.88,44.52"/><path class="cls-4" d="M44.88,37.87a7,7,0,1,0,7.12,7,7.06,7.06,0,0,0-7.12-7"/><path class="cls-5" d="M44.88,35.52a9.34,9.34,0,1,0,9.5,9.34,9.43,9.43,0,0,0-9.5-9.34m0,16.34a7,7,0,1,1,7.12-7,7.06,7.06,0,0,1-7.12,7"/></g></g></g></g></g></g></g></svg>