<svg xmlns="http://www.w3.org/2000/svg" xmlns:xlink="http://www.w3.org/1999/xlink" viewBox="0 0 104 104"><defs><style>.cls-1,.cls-3{fill:none;}.cls-2{fill:#fff;}.cls-3{stroke:#4e7ac6;stroke-miterlimit:10;stroke-width:4px;}.cls-4{clip-path:url(#clip-path);}.cls-5{fill:#0071bc;}.cls-6{fill:#29abe2;}</style><clipPath id="clip-path"><rect class="cls-1" x="19.5" y="27" width="65" height="60"/></clipPath></defs><title>gim</title><g id="Layer_2" data-name="Layer 2"><g id="main_content" data-name="main content"><g id="content"><g id="breakpoints"><g id="gim_circle" data-name="gim circle"><circle class="cls-2" cx="52" cy="52" r="50"/><circle class="cls-3" cx="52" cy="52" r="50"/><g id="gim"><g class="cls-4"><polygon class="cls-5" points="26.07 69.93 21.5 87 25.78 87 30.34 69.93 26.07 69.93"/><polygon class="cls-5" points="73.66 69.93 78.22 87 82.5 87 77.94 69.93 73.66 69.93"/><rect class="cls-6" x="21.05" y="28.55" width="61.9" height="41.38"/><g class="cls-4"><path class="cls-5" d="M83,71.48H21a1.55,1.55,0,0,1-1.55-1.55V28.55A1.55,1.55,0,0,1,21,27H83a1.55,1.55,0,0,1,1.55,1.55V69.93A1.55,1.55,0,0,1,83,71.48M22.6,68.38H81.4V30.1H22.6Z"/><path class="cls-2" d="M29.6,50.64a8,8,0,0,1-1.8,1.84,3,3,0,0,1-1.63.61,1.11,1.11,0,0,1-.87-.42,1.61,1.61,0,0,1-.36-1.09,6.2,6.2,0,0,1,1.53-3.7q1.53-2,3-2a.87.87,0,0,1,.81.63.28.28,0,0,0,.27.21q.52,0,.52.4a3.26,3.26,0,0,1-.06.55,17.67,17.67,0,0,0-.35,2.71q0,1.58.6,1.89a.45.45,0,0,1,.29.39.55.55,0,0,1-.28.41.92.92,0,0,1-.54.21q-.5,0-.83-.69a4.75,4.75,0,0,1-.33-2M29.2,47q-.86,0-2,1.61a5.06,5.06,0,0,0-1.14,2.68q0,.75.49.75.72,0,2-1.45a4.23,4.23,0,0,0,1.27-2.66q0-.93-.61-.93"/><path class="cls-2" d="M34.23,47.6h.6q.5,0,1.65.07h.4a.77.77,0,0,0,.23-.06.73.73,0,0,1,.24-.06.23.23,0,0,1,.15.1.28.28,0,0,1,.09.17.43.43,0,0,1-.26.39,1,1,0,0,1-.46.14h-.14a2.11,2.11,0,0,1-.53,0,5.17,5.17,0,0,0-1.31-.14,3.85,3.85,0,0,0-1.18.16,1.48,1.48,0,0,0-.66.35,1.29,1.29,0,0,1-.26.26.45.45,0,0,1-.23.05c-.2,0-.3-.09-.3-.26a.94.94,0,0,1,.33-.71,5,5,0,0,1,1.1-.7,3.65,3.65,0,0,0,.55-.31l.54-.49a6.26,6.26,0,0,0,.68-.7,2.47,2.47,0,0,0,.33-.52,1.07,1.07,0,0,0,.1-.42.76.76,0,0,0-.32-.54A.92.92,0,0,0,35,44a1.55,1.55,0,0,0-.7.29,3,3,0,0,0-.69.56.56.56,0,0,1-.45.17S33,45,33,44.89a.62.62,0,0,1-.08-.26.18.18,0,0,1,0-.1l.38-.29L34,43.8a2.59,2.59,0,0,1,.58-.29,2.38,2.38,0,0,1,.75-.1,1.06,1.06,0,0,1,.73.33,2.57,2.57,0,0,1,.51.64,1.75,1.75,0,0,1,.17.36,2.65,2.65,0,0,1-.78,1.44,5.93,5.93,0,0,1-1.69,1.42"/><path class="cls-2" d="M44.88,49.71a.75.75,0,0,1-.6.18l-.56,0a6.23,6.23,0,0,0-.64-.05H41.67a2.06,2.06,0,0,0-.14.89,7.68,7.68,0,0,1,0,.93,2.34,2.34,0,0,0,0,.52q0,.34-.36.34a.47.47,0,0,1-.37-.11.64.64,0,0,1-.09-.39q0-.15.11-1,.05-.42.1-1.16-.42,0-1.26,0a1.56,1.56,0,0,0-.38.07l-.33.06a.45.45,0,0,1-.32-.13.42.42,0,0,1-.14-.31.52.52,0,0,1,.09-.28.26.26,0,0,1,.21-.15,2.6,2.6,0,0,1,.47,0,2.35,2.35,0,0,0,.38,0L40.92,49a1.68,1.68,0,0,0,.08-.51q0-.35-.05-1.2,0-.35,0-.61a.86.86,0,0,1,.13-.44.39.39,0,0,1,.34-.22q.1,0,.23.22a.74.74,0,0,1,.13.33q0,.34-.06.91t-.06.78a5.75,5.75,0,0,0,0,.67,3.43,3.43,0,0,0,.76,0l1.49,0a1.5,1.5,0,0,1,.78.13q.18.13.18.6"/><path class="cls-2" d="M47.51,49.3a8.2,8.2,0,0,1,2-2.46,3.47,3.47,0,0,1,2.09-.94,1.06,1.06,0,0,1,.87.48,1.88,1.88,0,0,1,.36,1.16,5.75,5.75,0,0,1-1.53,3.81,4.3,4.3,0,0,1-3.22,1.78,1.53,1.53,0,0,1-.85-.25.87.87,0,0,1-.43-.63.72.72,0,0,0-.18-.46.84.84,0,0,1-.28-.6,20.12,20.12,0,0,1,.33-2.54l.67-3.9a22.56,22.56,0,0,1,.5-2.43,1.38,1.38,0,0,1,.35-.62.75.75,0,0,1,.48-.16q.46,0,.46.79a6.58,6.58,0,0,1-.5,2.1,32.88,32.88,0,0,0-1.11,4.87m-.16,2.17q.34.63.82.63a2.66,2.66,0,0,0,1.57-.62,5.17,5.17,0,0,0,1.43-1.74,4.19,4.19,0,0,0,.6-1.89,1.33,1.33,0,0,0-.12-.59q-.12-.25-.31-.25-.9,0-2.21,1.48a8.39,8.39,0,0,0-1.77,3"/><path class="cls-2" d="M55.27,47.6h.6q.5,0,1.65.07h.4a.77.77,0,0,0,.23-.06.72.72,0,0,1,.24-.06s.09,0,.15.1a.28.28,0,0,1,.09.17.43.43,0,0,1-.26.39,1,1,0,0,1-.46.14h-.14a2.11,2.11,0,0,1-.53,0,5.17,5.17,0,0,0-1.31-.14,3.85,3.85,0,0,0-1.18.16,1.48,1.48,0,0,0-.66.35,1.29,1.29,0,0,1-.26.26.45.45,0,0,1-.23.05q-.3,0-.3-.26a.94.94,0,0,1,.33-.71,5,5,0,0,1,1.1-.7,3.61,3.61,0,0,0,.55-.31l.54-.49a6.35,6.35,0,0,0,.68-.7,2.47,2.47,0,0,0,.33-.52,1.07,1.07,0,0,0,.1-.42.76.76,0,0,0-.31-.54A.92.92,0,0,0,56,44a1.55,1.55,0,0,0-.7.29,3,3,0,0,0-.69.56.56.56,0,0,1-.45.17s-.1-.05-.16-.16a.61.61,0,0,1-.08-.26.18.18,0,0,1,0-.1l.38-.29L55,43.8a2.6,2.6,0,0,1,.58-.29,2.38,2.38,0,0,1,.75-.1,1.06,1.06,0,0,1,.73.33,2.57,2.57,0,0,1,.51.64,1.73,1.73,0,0,1,.17.36A2.65,2.65,0,0,1,57,46.18a5.92,5.92,0,0,1-1.69,1.42"/><path class="cls-2" d="M65.56,47.63a1.08,1.08,0,0,1-.4-.11,1.42,1.42,0,0,0-.41-.1l-.29,0-.3,0-.59,0c-.26,0-.48,0-.64,0a11.61,11.61,0,0,0-1.27.09,11,11,0,0,1-1.29.1.74.74,0,0,1-.41-.09c-.09-.06-.13-.19-.13-.4a.59.59,0,0,1,.11-.35q.11-.16.68-.25a5.82,5.82,0,0,1,.92-.09l.41,0q.36,0,1.22,0a7.42,7.42,0,0,0,1.33-.13H65a1.27,1.27,0,0,1,.75.22.64.64,0,0,1,.3.52q0,.56-.5.56m-2.28,3.05h-.79l-2,0q-.1,0-.29-.27A.87.87,0,0,1,60,50q0-.2.44-.3a3.58,3.58,0,0,1,.79-.1l1.63,0a2.92,2.92,0,0,0,.48,0,4.31,4.31,0,0,1,.76-.06,6.2,6.2,0,0,1,1.45.16q.65.16.65.54a.72.72,0,0,1-.1.36q-.1.18-.21.18a4.21,4.21,0,0,1-.61-.08,4.44,4.44,0,0,0-.83-.06l-1.13,0"/><path class="cls-2" d="M69.86,53.39a2,2,0,0,1-1.5-.56,2.22,2.22,0,0,1-.52-1.57,6.26,6.26,0,0,1,1.35-3.59q1.35-1.89,2.51-1.89a1.09,1.09,0,0,1,.91.57A2.15,2.15,0,0,1,73,47.55a1.27,1.27,0,0,1-.17.66c-.11.19-.22.28-.34.28s-.43-.25-.53-.76-.29-.82-.51-.82q-.68,0-1.6,1.61a5.77,5.77,0,0,0-.92,2.72q0,1.11,1.26,1.11a4.16,4.16,0,0,0,2.25-.9,1.43,1.43,0,0,1,.67-.32c.15,0,.22.08.22.25q0,.5-1.16,1.25a4.19,4.19,0,0,1-2.28.75"/><path class="cls-2" d="M76,47.6h.6q.5,0,1.65.07h.4a.77.77,0,0,0,.23-.06.72.72,0,0,1,.24-.06s.09,0,.15.1a.28.28,0,0,1,.09.17.43.43,0,0,1-.26.39,1,1,0,0,1-.46.14h-.14a2.11,2.11,0,0,1-.53,0,5.17,5.17,0,0,0-1.31-.14,3.85,3.85,0,0,0-1.18.16,1.48,1.48,0,0,0-.66.35,1.29,1.29,0,0,1-.26.26.45.45,0,0,1-.23.05q-.3,0-.3-.26a.94.94,0,0,1,.33-.71,5,5,0,0,1,1.1-.7A3.61,3.61,0,0,0,76,47l.54-.49a6.35,6.35,0,0,0,.68-.7,2.47,2.47,0,0,0,.33-.52,1.07,1.07,0,0,0,.1-.42.76.76,0,0,0-.31-.54.92.92,0,0,0-.58-.28,1.55,1.55,0,0,0-.7.29,3,3,0,0,0-.69.56.56.56,0,0,1-.45.17s-.1-.05-.16-.16a.61.61,0,0,1-.08-.26.18.18,0,0,1,0-.1l.38-.29.65-.45a2.6,2.6,0,0,1,.58-.29,2.38,2.38,0,0,1,.75-.1,1.06,1.06,0,0,1,.73.33,2.57,2.57,0,0,1,.51.64,1.73,1.73,0,0,1,.17.36,2.65,2.65,0,0,1-.78,1.44A5.92,5.92,0,0,1,76,47.6"/></g></g></g></g></g></g></g></g></svg>