<svg xmlns="http://www.w3.org/2000/svg" xmlns:xlink="http://www.w3.org/1999/xlink" viewBox="0 0 104 104"><defs><style>.cls-1,.cls-3{fill:none;}.cls-2{fill:#fff;}.cls-3{stroke:#4e7ac6;stroke-miterlimit:10;stroke-width:4px;}.cls-4{clip-path:url(#clip-path);}.cls-5{fill:#0071bc;}.cls-6{fill:#29abe2;}</style><clipPath id="clip-path"><rect class="cls-1" x="19.5" y="22" width="65" height="60"/></clipPath></defs><title>lic</title><g id="Layer_2" data-name="Layer 2"><g id="main_content" data-name="main content"><g id="content"><g id="breakpoints"><g id="lic_circle" data-name="lic circle"><circle class="cls-2" cx="52" cy="52" r="50"/><circle class="cls-3" cx="52" cy="52" r="50"/><g id="lic"><g class="cls-4"><polygon class="cls-5" points="26.07 64.93 21.5 82 25.78 82 30.34 64.93 26.07 64.93"/><polygon class="cls-5" points="73.66 64.93 78.22 82 82.5 82 77.94 64.93 73.66 64.93"/><rect class="cls-6" x="21.05" y="23.55" width="61.9" height="41.38"/><g class="cls-4"><path class="cls-5" d="M83,66.48H21a1.55,1.55,0,0,1-1.55-1.55V23.55A1.55,1.55,0,0,1,21,22H83a1.55,1.55,0,0,1,1.55,1.55V64.93A1.55,1.55,0,0,1,83,66.48M22.6,63.38H81.4V25.1H22.6Z"/><path class="cls-2" d="M29.71,40.94q0-.37-.9-.84a8.5,8.5,0,0,1-1.55-.94,1,1,0,0,1-.4-.79A2.18,2.18,0,0,1,28,36.51a3.65,3.65,0,0,1,1.83-.74,1.09,1.09,0,0,1,.66.16.65.65,0,0,1,.21.55.38.38,0,0,1-.15.3.43.43,0,0,1-.23.12.75.75,0,0,1-.24-.08.8.8,0,0,0-.24-.08,3.59,3.59,0,0,0-1.14.41q-.86.41-.86.93a.74.74,0,0,0,.3.57,5.41,5.41,0,0,0,1.09.63,4.18,4.18,0,0,1,1,.65,1.07,1.07,0,0,1,.38.82q0,.86-1.19,1.35a6,6,0,0,1-2.27.49q-.91,0-.91-.62a.33.33,0,0,1,.21-.32.93.93,0,0,1,.41-.1,1.71,1.71,0,0,1,.32.06l.3.06a4.8,4.8,0,0,0,1.34-.21,1.43,1.43,0,0,0,.88-.52"/><path class="cls-2" d="M32.85,41a4.53,4.53,0,0,0,.12,1,.81.81,0,0,1,0,.17q0,.1-.19.26a.59.59,0,0,1-.39.16q-.55,0-.55-1a19.81,19.81,0,0,1,.43-3.29,7.85,7.85,0,0,0,.15-1,1.31,1.31,0,0,1,.13-.61.4.4,0,0,1,.37-.25.69.69,0,0,1,.45.14.4.4,0,0,1,.17.31,1.72,1.72,0,0,1-.08.45,21,21,0,0,0-.52,2.13,9.92,9.92,0,0,0-.1,1.53m.74-6.31q-.12,0-.18-.25a1.55,1.55,0,0,0-.06-.18,1.71,1.71,0,0,1-.15-.64.64.64,0,0,1,.27-.46.88.88,0,0,1,.59-.23.71.71,0,0,1,.37.13q.2.13.2.25a2.52,2.52,0,0,1-.14.63,1,1,0,0,1-.44.6,1.13,1.13,0,0,1-.46.16"/><path class="cls-2" d="M38.94,37.89a.94.94,0,0,0-.64.38A10.19,10.19,0,0,0,37.24,40,11.39,11.39,0,0,1,36,42a.77.77,0,0,1-.45.25.58.58,0,0,1-.66-.64,4.61,4.61,0,0,1,.09-.77,20.11,20.11,0,0,0,.31-3.6.86.86,0,0,1,.18-.48c.12-.17.24-.26.35-.26a.47.47,0,0,1,.42.18,1.43,1.43,0,0,1,.12.73,16.22,16.22,0,0,1-.34,2.35,5.46,5.46,0,0,0-.11.74c0,.06,0,.09,0,.09a6.48,6.48,0,0,0,.78-1.35A8.82,8.82,0,0,1,38,37.35a1.58,1.58,0,0,1,1.17-.56,1,1,0,0,1,.82.46,4.06,4.06,0,0,1,.46,1.69,10.18,10.18,0,0,0,.28,1.74q.13.34.4.34a1.08,1.08,0,0,0,.44-.12l.07,0c.16,0,.24.09.24.28a.75.75,0,0,1-.33.53,1.2,1.2,0,0,1-.8.28.85.85,0,0,1-.74-.38,5.51,5.51,0,0,1-.41-2q-.16-1.66-.66-1.66"/><path class="cls-2" d="M47.12,40q-1.9,2.43-3.19,2.43a1.08,1.08,0,0,1-1-.59,3.07,3.07,0,0,1-.35-1.58,5.42,5.42,0,0,1,.79-2.9,2.3,2.3,0,0,1,2-1.29,1.57,1.57,0,0,1,1.07.4,4.67,4.67,0,0,1,1,1.66q.65-1,1.18-2t.83-.84q.47,0,.47.52a2.34,2.34,0,0,1-.5,1l-1.12,1.63a2.28,2.28,0,0,0-.41.71,5.81,5.81,0,0,0,.59,1.42,8.26,8.26,0,0,0,1.14,1.8.41.41,0,0,1,.12.25.2.2,0,0,1-.09.16.33.33,0,0,1-.21.07,1.61,1.61,0,0,1-1.13-.71A8.13,8.13,0,0,1,47.12,40m-3.52.14a2.1,2.1,0,0,0,.16.9.48.48,0,0,0,.43.33q.63,0,1.55-1T46.66,39a3,3,0,0,0-.43-1.19q-.43-.8-.94-.8-.7,0-1.19,1a4.77,4.77,0,0,0-.5,2.11"/><path class="cls-2" d="M57.9,43.39a1,1,0,0,1-.34-.1,1.21,1.21,0,0,0-.35-.08l-.25,0-.26,0-.51,0-.56,0a10,10,0,0,0-1.1.08,9.56,9.56,0,0,1-1.12.08.65.65,0,0,1-.35-.08q-.11-.08-.11-.35a.51.51,0,0,1,.1-.3q.1-.14.59-.22a5.06,5.06,0,0,1,.79-.08l.35,0c.21,0,.56,0,1.06,0A6.42,6.42,0,0,0,57,42.26h.43a1.1,1.1,0,0,1,.65.19.55.55,0,0,1,.26.45q0,.48-.43.49m-2,2.64h-.69l-1.77,0c-.06,0-.14-.08-.25-.24a.75.75,0,0,1-.16-.36q0-.17.38-.26a3.08,3.08,0,0,1,.68-.09l1.41,0a2.54,2.54,0,0,0,.41,0,3.77,3.77,0,0,1,.66-.05,5.37,5.37,0,0,1,1.26.14q.56.14.56.47a.62.62,0,0,1-.09.31c-.06.1-.12.16-.18.16a3.6,3.6,0,0,1-.53-.07A3.87,3.87,0,0,0,56.9,46h-1"/><path class="cls-2" d="M62.38,42.35l1.09-.11a8,8,0,0,1,.85-.06,1.13,1.13,0,0,1,.54.08.32.32,0,0,1,.11.28q0,.46-.64.5-.82.05-1.5.14a2.49,2.49,0,0,0-.74.15,10.3,10.3,0,0,0-.34,1.34,10.17,10.17,0,0,0-.29,1.67,1.43,1.43,0,0,0,.16.83.59.59,0,0,0,.49.21,2.48,2.48,0,0,0,1.35-.73.94.94,0,0,1,.51-.3c.16,0,.24.09.24.26s-.26.62-.78,1.05a2.49,2.49,0,0,1-1.6.65q-1.36,0-1.36-1.61a9,9,0,0,1,.28-1.8A10.78,10.78,0,0,0,61,43.44c0-.06,0-.08-.14-.08l-.59.05q-.72,0-.72-.58a.29.29,0,0,1,.33-.33h1.16a.27.27,0,0,0,.21-.11,2.79,2.79,0,0,0,.26-.72q.17-.61.31-1.21t.53-.59a.46.46,0,0,1,.38.17.52.52,0,0,1,.13.32,7.4,7.4,0,0,1-.2.81Z"/><path class="cls-2" d="M69.48,46s-.17.07-.38.32a5.05,5.05,0,0,1-1.31,1.07,3,3,0,0,1-1.48.47,1,1,0,0,1-.79-.32,1.27,1.27,0,0,1-.29-.88,3.82,3.82,0,0,1,.66-2,6.17,6.17,0,0,1,1.84-1.88,3.88,3.88,0,0,1,2.07-.8,1.31,1.31,0,0,1,.82.27l.15.11a.68.68,0,0,1,.19.3,1,1,0,0,1,.09.36.88.88,0,0,1-.06.26,11,11,0,0,0-.47,1.55q-.12.62-.27,2.07A18.75,18.75,0,0,1,70,49a4.39,4.39,0,0,1-.57,1.37,2.84,2.84,0,0,1-1,1,2.34,2.34,0,0,1-1.18.33,3.56,3.56,0,0,1-2.08-.73q-1-.73-1-1.17c0-.18.07-.28.21-.28a2.11,2.11,0,0,1,.6.33,4.42,4.42,0,0,0,2.38.89,1.52,1.52,0,0,0,1.4-1,8.82,8.82,0,0,0,.66-3q0-.45.1-.76m0-3.1a2.28,2.28,0,0,0-1.2.5,5.82,5.82,0,0,0-1.39,1.46,3,3,0,0,0-.68,1.61.45.45,0,0,0,.14.35.44.44,0,0,0,.31.13A2.65,2.65,0,0,0,68,46.42,4.59,4.59,0,0,0,69.34,45a3.05,3.05,0,0,0,.58-1.45q0-.63-.46-.63"/><path class="cls-2" d="M76.49,45.85q-1.9,2.43-3.19,2.43a1.08,1.08,0,0,1-1-.59A3.06,3.06,0,0,1,72,46.11a5.42,5.42,0,0,1,.79-2.9,2.3,2.3,0,0,1,2-1.29,1.57,1.57,0,0,1,1.07.4,4.69,4.69,0,0,1,1,1.66q.65-1,1.18-2t.83-.84q.47,0,.47.52a2.33,2.33,0,0,1-.5,1l-1.12,1.63a2.28,2.28,0,0,0-.41.71,5.8,5.8,0,0,0,.59,1.42A8.25,8.25,0,0,0,79,48.22a.41.41,0,0,1,.12.25.2.2,0,0,1-.09.16.33.33,0,0,1-.21.07A1.61,1.61,0,0,1,77.67,48a8.17,8.17,0,0,1-1.18-2.15M73,46a2.1,2.1,0,0,0,.16.9.48.48,0,0,0,.43.33q.63,0,1.55-1T76,44.86a3,3,0,0,0-.43-1.19q-.43-.8-.94-.8-.7,0-1.19,1A4.77,4.77,0,0,0,73,46"/><path class="cls-2" d="M27.72,52.85a1.69,1.69,0,0,1-1.3-.49A1.92,1.92,0,0,1,26,51a5.42,5.42,0,0,1,1.17-3.11q1.17-1.63,2.17-1.63a.94.94,0,0,1,.79.49,1.86,1.86,0,0,1,.33,1,1.1,1.1,0,0,1-.14.57c-.1.16-.19.24-.29.24s-.37-.22-.46-.66-.25-.71-.44-.71q-.59,0-1.39,1.39A5,5,0,0,0,26.9,51q0,1,1.09,1a3.6,3.6,0,0,0,1.95-.78,1.24,1.24,0,0,1,.58-.28q.19,0,.19.22,0,.43-1,1.08a3.63,3.63,0,0,1-2,.65"/><path class="cls-2" d="M33.67,52.81a1.6,1.6,0,0,1-1.27-.59,2.16,2.16,0,0,1-.5-1.45,5,5,0,0,1,1-2.87,2.81,2.81,0,0,1,2.34-1.41,1.79,1.79,0,0,1,1.46.69,2.55,2.55,0,0,1,.56,1.65,3.94,3.94,0,0,1-1.16,2.72,3.31,3.31,0,0,1-2.41,1.25m-.78-2.18a1.65,1.65,0,0,0,.24.93.73.73,0,0,0,.63.36A2.36,2.36,0,0,0,35.45,51a3,3,0,0,0,.84-2.05A1.83,1.83,0,0,0,36,47.81a1,1,0,0,0-.87-.43,1.85,1.85,0,0,0-1.56,1.12,4.23,4.23,0,0,0-.65,2.13"/><path class="cls-2" d="M41.38,51.23q0-.37-.9-.84a8.5,8.5,0,0,1-1.55-.94,1,1,0,0,1-.4-.79,2.18,2.18,0,0,1,1.12-1.86,3.65,3.65,0,0,1,1.83-.74,1.09,1.09,0,0,1,.66.16.65.65,0,0,1,.21.55.38.38,0,0,1-.15.3.43.43,0,0,1-.23.12.75.75,0,0,1-.24-.08.8.8,0,0,0-.24-.08,3.59,3.59,0,0,0-1.14.41q-.86.41-.86.93a.74.74,0,0,0,.3.57,5.41,5.41,0,0,0,1.09.63,4.18,4.18,0,0,1,1,.65,1.07,1.07,0,0,1,.38.82q0,.86-1.19,1.35a6,6,0,0,1-2.27.49q-.91,0-.91-.62a.33.33,0,0,1,.21-.32.93.93,0,0,1,.41-.1,1.71,1.71,0,0,1,.32.06l.3.06a4.8,4.8,0,0,0,1.34-.21,1.43,1.43,0,0,0,.88-.52"/><path class="cls-2" d="M47.81,50.33q-1.9,2.43-3.19,2.43a1.08,1.08,0,0,1-1-.59,3.07,3.07,0,0,1-.35-1.58,5.42,5.42,0,0,1,.79-2.9,2.3,2.3,0,0,1,2-1.29,1.57,1.57,0,0,1,1.07.4,4.67,4.67,0,0,1,1,1.66q.65-1,1.18-2t.83-.84q.47,0,.47.52a2.34,2.34,0,0,1-.5,1L49,48.76a2.28,2.28,0,0,0-.41.71,5.81,5.81,0,0,0,.59,1.42,8.26,8.26,0,0,0,1.14,1.8.41.41,0,0,1,.12.25.2.2,0,0,1-.09.16.33.33,0,0,1-.21.07A1.61,1.61,0,0,1,49,52.47a8.13,8.13,0,0,1-1.18-2.15m-3.52.14a2.1,2.1,0,0,0,.16.9.48.48,0,0,0,.43.33q.63,0,1.55-1t.92-1.33a3,3,0,0,0-.43-1.19q-.43-.8-.94-.8-.7,0-1.19,1a4.77,4.77,0,0,0-.5,2.11"/><path class="cls-2" d="M24.75,44.84a1.67,1.67,0,0,0,.35,0,1.41,1.41,0,0,0-.35,0"/><polyline class="cls-2" points="25.11 44.87 25.11 44.87 25.11 44.87 25.11 44.87"/><path class="cls-2" d="M50.9,43.75h0"/><path class="cls-2" d="M31.55,44.94l0,0c.32,0,.09,0,.38,0,.11-.06.48,0,.59,0s.14,0,.13,0,.15,0,.24,0,0,0,0,0h.21c.08,0,.1,0,0,0,.54,0,3.13,0,3.71,0a2.58,2.58,0,0,1-.32,0c.15,0,.23,0,.29,0s.34,0,.45.07l0,0,.08,0a4.71,4.71,0,0,1,.75,0c.35,0,.51,0,.7,0,0,0-.1,0,0,0s.24,0,.28,0,.37,0,.28,0,.3,0,.15,0h.12a4.42,4.42,0,0,0,.64,0h-.11a1,1,0,0,1,.39,0h-.18c.29,0,.46,0,.7,0H41c.3,0,1.9-.07,2.18-.12l-.13,0,.24,0s-.12.09-.14.09c.52,0,3.21,0,3.69,0,.19,0,0,0,0,.05a3,3,0,0,1,.3,0c.05,0,0,0,0,0s.17,0,.17,0-.06,0-.11-.07h.26v0a1.31,1.31,0,0,1,.4-.05h1.31a.57.57,0,0,1-.19,0h.2c-.1,0,.18,0,.1,0,.31-.06.72,0,1,0,0-.05.59-.87.59-.93H51a1,1,0,0,0-.28,0l0,0c-.21,0,0,0-.25,0,0,0,.17,0,.34,0a1.2,1.2,0,0,0-.35,0c-.14,0,0,0-.15,0a2.34,2.34,0,0,1-.41,0h0c-.33,0-.51,0-.81,0h0c-.11,0-.32,0-.51,0,.06,0,.1,0,0,0s-.37,0-.53,0l-.16,0c-.77,0-3.82,0-4.6,0h0c-1.18,0-3.61,0-4.83,0-.19,0-.45,0-.65,0,.11,0,.07,0,0,0-.6,0,0,0-.65,0s-3.37,0-4,0c-.33,0-.75,0-1.08,0h0c-.35,0-2.34,0-2.74,0h.06a2.9,2.9,0,0,1-.59,0s-.27.07-.38.07h0c-.18,0-.57,0-.86,0v0c-.24,0-.69,0-.87,0-.4,0-1,0-1.54,0l-.34-.07h-.05s-.55.79.15,1v0h.14c.17,0,.24,0,.23,0h-.23c.17,0,.05,0,0,0h.19s0,0-.05,0a1.79,1.79,0,0,1,.32,0c.17,0,0,0,.21,0,1.05,0,2.07,0,3.13,0,0,0,0,0,0,0l.9,0a.36.36,0,0,1,.13,0s1.61,0,1.64,0"/></g></g></g></g></g></g></g></g></svg>