<svg xmlns="http://www.w3.org/2000/svg" xmlns:xlink="http://www.w3.org/1999/xlink" viewBox="0 0 104 104"><defs><style>.cls-1,.cls-3{fill:none;}.cls-2{fill:#fff;}.cls-3{stroke:#4e7ac6;stroke-miterlimit:10;stroke-width:4px;}.cls-4{clip-path:url(#clip-path);}.cls-5{fill:#0071bc;}.cls-6{fill:#29abe2;}</style><clipPath id="clip-path"><rect class="cls-1" x="19.5" y="22" width="65" height="60"/></clipPath></defs><title>pdst</title><g id="Layer_2" data-name="Layer 2"><g id="main_content" data-name="main content"><g id="content"><g id="breakpoints"><g id="pdst_circle" data-name="pdst circle"><circle class="cls-2" cx="52" cy="52" r="50"/><circle class="cls-3" cx="52" cy="52" r="50"/><g id="pdst"><g class="cls-4"><polygon class="cls-5" points="26.07 64.93 21.5 82 25.78 82 30.34 64.93 26.07 64.93"/><polygon class="cls-5" points="73.66 64.93 78.22 82 82.5 82 77.93 64.93 73.66 64.93"/><rect class="cls-6" x="21.05" y="23.55" width="61.9" height="41.38"/><g class="cls-4"><path class="cls-5" d="M83,66.48H21a1.55,1.55,0,0,1-1.55-1.55V23.55A1.55,1.55,0,0,1,21,22H83a1.55,1.55,0,0,1,1.55,1.55V64.93A1.55,1.55,0,0,1,83,66.48M22.6,63.38H81.4V25.1H22.6Z"/><path class="cls-2" d="M29,45.92q.41,0,1.24,0,1,0,3.42.15l.84,0a1.56,1.56,0,0,0,.48-.13,1.5,1.5,0,0,1,.49-.13.47.47,0,0,1,.31.2.57.57,0,0,1,.18.34.88.88,0,0,1-.53.8,2.05,2.05,0,0,1-1,.29h-.29a4.34,4.34,0,0,1-1.11-.1A10.73,10.73,0,0,0,30.35,47a8,8,0,0,0-2.44.34,3.07,3.07,0,0,0-1.37.72,2.69,2.69,0,0,1-.53.53.94.94,0,0,1-.48.11q-.61,0-.61-.54a2,2,0,0,1,.68-1.46,10.27,10.27,0,0,1,2.27-1.45A7.55,7.55,0,0,0,29,44.65l1.13-1a13,13,0,0,0,1.4-1.45,5.14,5.14,0,0,0,.69-1.08,2.22,2.22,0,0,0,.21-.88,1.57,1.57,0,0,0-.65-1.12,1.91,1.91,0,0,0-1.21-.57,3.23,3.23,0,0,0-1.45.6,6.13,6.13,0,0,0-1.44,1.16,1.16,1.16,0,0,1-.93.36q-.15,0-.32-.34a1.3,1.3,0,0,1-.17-.54.38.38,0,0,1,0-.2,9.62,9.62,0,0,1,.79-.59q.75-.54,1.35-.93a5.41,5.41,0,0,1,1.21-.59,4.94,4.94,0,0,1,1.56-.2,2.19,2.19,0,0,1,1.52.67,5.33,5.33,0,0,1,1.06,1.32,3.59,3.59,0,0,1,.35.74,5.49,5.49,0,0,1-1.61,3A12.28,12.28,0,0,1,29,45.92"/><path class="cls-2" d="M45,43.93a.9.9,0,0,1-.72.21,6.62,6.62,0,0,1-.68-.05,7.52,7.52,0,0,0-.77-.06h-1.7a2.49,2.49,0,0,0-.17,1.07,9.36,9.36,0,0,1,0,1.13,2.86,2.86,0,0,0,0,.63q0,.41-.43.41a.57.57,0,0,1-.44-.13.76.76,0,0,1-.11-.47q0-.18.13-1.24.06-.51.13-1.39-.5,0-1.52,0a1.89,1.89,0,0,0-.46.08,2.3,2.3,0,0,1-.4.07A.54.54,0,0,1,37.4,44a.5.5,0,0,1-.17-.37.62.62,0,0,1,.11-.33.32.32,0,0,1,.26-.18,3.16,3.16,0,0,1,.57.06,2.87,2.87,0,0,0,.46.06l1.58-.08a2,2,0,0,0,.09-.61q0-.43-.06-1.45,0-.43,0-.73a1,1,0,0,1,.16-.54.47.47,0,0,1,.4-.27c.08,0,.18.09.28.26a.89.89,0,0,1,.15.4q0,.41-.07,1.1t-.07.94a6.89,6.89,0,0,0,0,.8,4.18,4.18,0,0,0,.92.05l1.8,0a1.81,1.81,0,0,1,.94.16q.21.16.21.72"/><path class="cls-2" d="M49.95,45.92q.41,0,1.24,0,1,0,3.42.15l.84,0a1.57,1.57,0,0,0,.48-.13,1.49,1.49,0,0,1,.49-.13c.09,0,.19.07.31.2a.57.57,0,0,1,.18.34.88.88,0,0,1-.53.8,2.06,2.06,0,0,1-1,.29h-.29a4.33,4.33,0,0,1-1.11-.1A10.74,10.74,0,0,0,51.3,47a8,8,0,0,0-2.44.34,3.07,3.07,0,0,0-1.37.72,2.69,2.69,0,0,1-.53.53.94.94,0,0,1-.48.11q-.61,0-.61-.54a2,2,0,0,1,.68-1.46,10.27,10.27,0,0,1,2.27-1.45,7.55,7.55,0,0,0,1.14-.64l1.13-1a13,13,0,0,0,1.4-1.45,5.13,5.13,0,0,0,.69-1.08,2.21,2.21,0,0,0,.21-.88,1.57,1.57,0,0,0-.65-1.12,1.91,1.91,0,0,0-1.21-.57,3.23,3.23,0,0,0-1.45.6,6.13,6.13,0,0,0-1.44,1.16,1.16,1.16,0,0,1-.93.36q-.15,0-.32-.34a1.3,1.3,0,0,1-.17-.54.38.38,0,0,1,0-.2A9.62,9.62,0,0,1,48,39q.75-.54,1.35-.93a5.41,5.41,0,0,1,1.21-.59,4.94,4.94,0,0,1,1.56-.2,2.19,2.19,0,0,1,1.52.67,5.33,5.33,0,0,1,1.06,1.32,3.63,3.63,0,0,1,.35.74,5.49,5.49,0,0,1-1.61,3,12.29,12.29,0,0,1-3.51,2.94"/><path class="cls-2" d="M65.5,41.42a1.3,1.3,0,0,1-.48-.13,1.71,1.71,0,0,0-.5-.12l-.35,0a2,2,0,0,1-.36,0q-.24,0-.71,0t-.78,0a13.85,13.85,0,0,0-1.53.11,13.34,13.34,0,0,1-1.56.12.9.9,0,0,1-.5-.11q-.16-.11-.16-.48a.71.71,0,0,1,.14-.42q.14-.19.82-.31A7,7,0,0,1,60.65,40l.5,0q.43,0,1.48,0a8.91,8.91,0,0,0,1.61-.15h.6a1.54,1.54,0,0,1,.91.27.77.77,0,0,1,.36.63q0,.68-.61.68m-2.76,3.69h-1l-2.47,0q-.13,0-.35-.33a1,1,0,0,1-.23-.5q0-.24.53-.36a4.3,4.3,0,0,1,1-.12l2,0a3.5,3.5,0,0,0,.57-.06,5.25,5.25,0,0,1,.92-.07,7.5,7.5,0,0,1,1.75.19q.79.19.79.65a.87.87,0,0,1-.13.44c-.08.14-.17.22-.25.22a5.06,5.06,0,0,1-.74-.09,5.4,5.4,0,0,0-1-.07l-1.37,0"/><path class="cls-2" d="M77.82,44.15a6.56,6.56,0,0,0-2.61-.31A6.08,6.08,0,0,0,75,45.52v1c0,.2,0,.34,0,.41s.06.19.2.37a.79.79,0,0,1,.2.35.83.83,0,0,1-.26.52.7.7,0,0,1-.49.29,1,1,0,0,1-.83-.29,1.49,1.49,0,0,1-.2-.86q0-.31.06-1t.07-1a8.37,8.37,0,0,1,.19-1.47,3.71,3.71,0,0,0-.56,0,10.85,10.85,0,0,0-2.71.28,7.88,7.88,0,0,1-2,.31,1.26,1.26,0,0,1-.85-.54q.35-1,3.84-3.74,1.12-.88,1.81-1.51A19.68,19.68,0,0,1,75,37.37a3.89,3.89,0,0,1,1-.66q.64,0,.64.32t-.45,1.64q-.68,2.69-.86,3.92a5.9,5.9,0,0,0,1.85.2h.54a1,1,0,0,1,.66.19,1.06,1.06,0,0,1,.21.78.48.48,0,0,1-.46.46.79.79,0,0,1-.37-.08M75,38.87q-.29.29-1.34,1.12a12.27,12.27,0,0,0-1.23,1.08A16.48,16.48,0,0,1,70.09,43c0,.08,0,.12.14.12a12.84,12.84,0,0,1,2.3-.26,8.72,8.72,0,0,0,1.64-.23,8.85,8.85,0,0,1,.23-1.13A15.51,15.51,0,0,0,75,38.87"/></g></g></g></g></g></g></g></g></svg>