<svg xmlns="http://www.w3.org/2000/svg" xmlns:xlink="http://www.w3.org/1999/xlink" viewBox="0 0 104 104"><defs><style>.cls-1,.cls-3{fill:none;}.cls-2{fill:#fff;}.cls-3{stroke:#4e7ac6;stroke-miterlimit:10;stroke-width:4px;}.cls-4{clip-path:url(#clip-path);}.cls-5{fill:#29abe2;}.cls-6{fill:#0071bc;}</style><clipPath id="clip-path"><rect class="cls-1" x="7" y="25.85" width="90" height="52.31"/></clipPath></defs><title>uni</title><g id="Layer_2" data-name="Layer 2"><g id="main_content" data-name="main content"><g id="content"><g id="breakpoints"><g id="uni_circle" data-name="uni circle"><circle class="cls-2" cx="52" cy="52" r="50"/><circle class="cls-3" cx="52" cy="52" r="50"/><g id="uni"><g class="cls-4"><g class="cls-4"><path class="cls-5" d="M52.7,46.86H25.56V62a4.21,4.21,0,0,0,.52,2A30.19,30.19,0,0,0,36,75.1a18.76,18.76,0,0,0,11.13,3H58.26a24.52,24.52,0,0,0,11.13-3A24,24,0,0,0,79.46,63.86a4.16,4.16,0,0,0,.37-1.72V46.86Z"/><path class="cls-6" d="M96.69,42.58,52.17,25.88a.48.48,0,0,0-.33,0L7.31,42.58a.47.47,0,0,0,0,.9l7.43,2.32a31.67,31.67,0,0,0-4.4,9.54,31,31,0,0,0-.8,4c3.39,1.67,4.88,1.37,5.61.8,1.07-.83.53-2.23,1.21-8.15.32-2.78.65-4.27,1.26-5.32a.46.46,0,0,0,.11.06l34.1,10.66.14,0,.14,0L96.67,43.47a.47.47,0,0,0,0-.9"/></g></g></g></g></g></g></g></g></svg>