<svg xmlns="http://www.w3.org/2000/svg" xmlns:xlink="http://www.w3.org/1999/xlink" viewBox="0 0 40 40"><defs><style>.cls-1{fill:none;}.cls-2{clip-path:url(#clip-path);}.cls-3{fill:#fff;}</style><clipPath id="clip-path" transform="translate(0 0)"><rect class="cls-1" width="40" height="40"/></clipPath></defs><title>ai</title><g id="Layer_2" data-name="Layer 2"><g id="belka_top" data-name="belka top"><g id="Artwork_1" data-name="Artwork 1"><g class="cls-2"><g class="cls-2"><path class="cls-3" d="M19.91,0C25.94,0,32,.07,38,0c1.4,0,1.89.43,1.89,1.87q0,18.14.12,36.27c0,1.48-.56,1.87-1.92,1.86q-18.17-.1-36.33-.07C.38,39.93,0,39.45,0,38.11Q.1,19.89.08,1.67C.08.45.48.06,1.66.07c6.08,0,12.17,0,18.25,0ZM8.21,29.31c3.18.79,3.48.63,4.3-2.15.18-.61.41-1.22.53-1.84a1.57,1.57,0,0,1,1.91-1.48,15.11,15.11,0,0,0,1.53,0c4,0,3-.41,4.17,3,.95,2.9,1.13,3,4.16,2.33a2.33,2.33,0,0,0,0-.66c-1.86-6-3.72-12-5.65-17.92a2,2,0,0,0-1.33-1,13.6,13.6,0,0,0-2-.07A1.5,1.5,0,0,0,14,10.92c-.45,1.68-1,3.32-1.56,5L8.21,29.31m18.72-6.94h0c0,1.85,0,3.7,0,5.56,0,1,.37,1.48,1.4,1.45S30,29.24,30,28q0-5.56,0-11.11c0-1.18-.62-1.45-1.61-1.47s-1.51.49-1.48,1.58c0,1.79,0,3.59,0,5.38M28,13.17h.82c.48-.7,1.24-1.36,1.36-2.12.18-1.16-.71-1.73-1.81-1.75A1.45,1.45,0,0,0,26.73,11,6.94,6.94,0,0,0,28,13.17" transform="translate(0 0)"/><path class="cls-3" d="M16.53,12.7l2.52,8.41H14.13l2.4-8.41" transform="translate(0 0)"/></g></g></g></g></g></svg>