<svg xmlns="http://www.w3.org/2000/svg" xmlns:xlink="http://www.w3.org/1999/xlink" viewBox="0 0 28.57 40"><defs><style>.cls-1{fill:none;}.cls-2{clip-path:url(#clip-path);}.cls-3{fill:#fff;}</style><clipPath id="clip-path" transform="translate(0 0)"><rect class="cls-1" width="28.57" height="40"/></clipPath></defs><title>css</title><g id="Layer_2" data-name="Layer 2"><g id="belka_top" data-name="belka top"><g id="css"><g class="cls-2"><path class="cls-3" d="M6.09,0V5.4h4.38V3.86H7.91V1.54h2.56V0Zm5.33,0V1.27l2.47,2.65H11.41V5.4h5.08V4.14L14,1.48H16.4V0Zm6,0V1.27l2.47,2.65H17.4V5.4h5.08V4.14L20,1.48h2.37V0Z" transform="translate(0 0)"/><path class="cls-3" d="M5.59,16.28l-.16-1.8-.09-1H23.26l-.09,1L22.3,24.1v.15L21.68,31l-.05.6-7.32,2h0L7,31.6,6.46,26h3.59l.25,2.83,4,1.07h0l4-1.07.42-4.6H10.35l-.07-.8-.16-1.8-.09-1h9l.33-3.63H5.66ZM0,7.86,2.6,36.79,14.27,40,26,36.78l2.6-28.92Z" transform="translate(0 0)"/></g></g></g></g></svg>