<svg xmlns="http://www.w3.org/2000/svg" xmlns:xlink="http://www.w3.org/1999/xlink" viewBox="0 0 80.15 30"><defs><style>.cls-1{fill:none;}.cls-2{clip-path:url(#clip-path);}.cls-3{fill:#fff;}</style><clipPath id="clip-path" transform="translate(0 0)"><rect class="cls-1" width="80.15" height="30"/></clipPath></defs><title>CV</title><g id="Layer_2" data-name="Layer 2"><g id="belka_top" data-name="belka top"><g id="CV"><g class="cls-2"><g class="cls-2"><path class="cls-3" d="M30.63,15.28C29.8,24.82,35.52,30,43.72,30a19.55,19.55,0,0,0,7.8-1.38l-.52-3a15.79,15.79,0,0,1-6.23,1.21c-7.08,0-10.78-4.57-10.16-11.7.67-7.64,5.58-12,12.4-12a13,13,0,0,1,5.76,1.21L54,1.29A14.82,14.82,0,0,0,47.16,0c-9,0-15.73,6.17-16.53,15.28" transform="translate(0 0)"/><path class="cls-3" d="M76.13.47,70,14.85c-1.63,3.8-3.16,7.47-4.27,10.83H65.6c-.48-3.41-1.25-6.95-2.16-10.88L60.16.47H56.1l7,29.09H67.2L80.15.47Z" transform="translate(0 0)"/><path class="cls-3" d="M24.26,12.4,4.5,1A3,3,0,0,0,0,3.59V26.41A3,3,0,0,0,4.5,29L24.26,17.6a3,3,0,0,0,0-5.2" transform="translate(0 0)"/></g></g></g></g></g></svg>