<svg xmlns="http://www.w3.org/2000/svg" xmlns:xlink="http://www.w3.org/1999/xlink" viewBox="0 0 40 40"><defs><style>.cls-1{fill:none;}.cls-2{clip-path:url(#clip-path);}.cls-3{fill:#fff;}</style><clipPath id="clip-path" transform="translate(0 0)"><rect class="cls-1" width="40" height="40"/></clipPath></defs><title>dw</title><g id="Layer_2" data-name="Layer 2"><g id="belka_top" data-name="belka top"><g id="Artwork_3" data-name="Artwork 3"><g class="cls-2"><g class="cls-2"><path class="cls-3" d="M40,2c0-1.7-.61-2-2.09-2Q20,.08,2.13,0C.51,0,0,.4,0,2.13c.07,11.6,0,23.19,0,34.79C0,37.4,0,38,0,38.56A1.42,1.42,0,0,0,1.43,40H38.21c1.48,0,1.8-.61,1.79-2,0-12-.07-24,0-36M18.15,21.28c-.75,5-3.62,7.68-8.61,8.16-1.58.15-3.19,0-4.79,0-1.12,0-1.46-.57-1.44-1.65,0-2.8,0-5.59,0-8.39h0c0-2.8,0-5.59,0-8.39,0-1,.37-1.55,1.35-1.55a47.28,47.28,0,0,1,6.64.09,7.75,7.75,0,0,1,6.87,7.15,16.42,16.42,0,0,1,0,4.52m17.36-.4c-.63,2.36-1.31,4.7-1.9,7.07-.27,1.09-.91,1.29-1.88,1.3a1.46,1.46,0,0,1-1.64-1.35c-.63-2.71-1.31-5.4-2-8.1l-.32,0c-.68,2.62-1.39,5.22-2,7.85-.26,1.12-.7,1.67-1.95,1.65s-1.51-.66-1.76-1.66c-1-4.11-2.07-8.2-3.11-12.28,2.56-.82,2.91-.61,3.38,1.82a62.11,62.11,0,0,0,2,8.14c.72-2.94,1.4-5.9,2.19-8.82A2.31,2.31,0,0,1,27.64,15c1-.36,1.7.05,1.94,1.26.5,2.45,1.11,4.87,1.69,7.3a3.75,3.75,0,0,0,.78,1.71q.85-4.06,1.71-8.12c.52-2.45.52-2.45,3.22-2-.49,1.91-1,3.81-1.47,5.7" transform="translate(0 0)"/><path class="cls-3" d="M6.39,19.37c0-1.92,0-3.83,0-5.75,0-1.12.46-1.52,1.52-1.59,4.45-.32,7.21,2.31,7.24,7,0,5-2.92,8.13-7.34,7.8-1-.08-1.42-.5-1.41-1.51,0-2,0-4,0-5.93" transform="translate(0 0)"/></g></g></g></g></g></svg>