<svg xmlns="http://www.w3.org/2000/svg" xmlns:xlink="http://www.w3.org/1999/xlink" viewBox="0 0 197.53 45"><defs><style>.cls-1{fill:none;}.cls-2{clip-path:url(#clip-path);}.cls-3{fill:#fff;}</style><clipPath id="clip-path" transform="translate(0 0)"><rect class="cls-1" width="197.53" height="45"/></clipPath></defs><title>github</title><g id="Layer_2" data-name="Layer 2"><g id="belka_top" data-name="belka top"><g id="github_arrow"><g class="cls-2"><g class="cls-2"><path class="cls-3" d="M70.31,5.8C63.45,0,55.54-1.45,47,1.48A22.77,22.77,0,0,0,32.13,27.79c1.9,8.54,7.2,14,15.18,17.07.79.31,1.61.15,1.7-.79.13-1.43,0-2.89,0-4.46-.79.09-1.31.17-1.83.19-1.85.09-3.7-.15-4.92-1.61-1.5-1.8-2.74-3.83-4.08-5.75,1.06-.5,3.33.19,3.78,1.55.38,1.15,1.33,1.5,2,2.23a9.54,9.54,0,0,1,.75,1c2.45-.36,5.38-.19,5.31-4-.46-.11-1-.28-1.64-.4a10.42,10.42,0,0,1-6.58-16.31,3.55,3.55,0,0,0,.33-1.73c.06-1.2,0-2.41.07-3.6s.82-1.83,2.08-1.35,2.5,1.05,3.76,1.54a4.68,4.68,0,0,0,1.73.45,65.1,65.1,0,0,1,7.36-.31c2.39.2,4.62.39,6.66-1.15A3.2,3.2,0,0,1,65,9.95c2.13-.51,2.47-.31,2.75,1.9a27.17,27.17,0,0,1-.06,3A2.6,2.6,0,0,0,68,16.28a9.86,9.86,0,0,1,1.77,7.93c-.51,3.43-1.94,6.35-5.44,7.68-1.5.57-3.06,1-4.38,1.37.31,1.86.69,3.53.84,5.22s0,3.16,0,4.74.69,2.06,2.23,1.47c.24-.09.5-.16.74-.26,7.65-3.23,12.63-8.88,14.2-17,1.65-8.54-1-16-7.63-21.63" transform="translate(0 0)"/><path class="cls-3" d="M110,25.1c0-1.24-.44-1.68-1.67-1.61-1.57.08-3.16,0-4.74,0-3.75,0-3.72,0-3.52,3.82,0,.92.35,1.28,1.31,1.3,2.64.07,2.64.11,2.64,2.74,0,.37,0,.74,0,1.11.08,1-.31,1.59-1.43,1.53-.74,0-1.48,0-2.21,0a5.17,5.17,0,0,1-4.73-3.55,14.13,14.13,0,0,1,.06-9.58,5.5,5.5,0,0,1,2.83-3.11,16.57,16.57,0,0,1,6.62-.51c2.69.34,2.65.62,3.21-2,.06-.26.1-.52.14-.78.2-1.52-.16-2.09-1.39-2.22a49,49,0,0,0-8.14-.59,10.26,10.26,0,0,0-9.51,8.62,25.59,25.59,0,0,0-.08,10.3c.68,3.08,2,5.69,4.87,7.17a15.94,15.94,0,0,0,14.55.15,2.46,2.46,0,0,0,1.12-1.78c.15-1.88.05-3.79.05-5.68s0-3.58,0-5.37" transform="translate(0 0)"/><path class="cls-3" d="M152.39,12.56c-1.08,0-1.5.36-1.47,1.46.06,2.31,0,4.63,0,6.95,0,1.06-.35,1.56-1.46,1.54-1.95,0-3.9,0-5.85,0-1,0-1.4-.42-1.37-1.42,0-1.42,0-2.84,0-4.26,0-4.41,0-4.37-4.36-4.27-1.23,0-1.65.47-1.63,1.7.06,3.84,0,7.69,0,11.53,0,3,0,6,0,9,.06,5-.75,4.12,4.25,4.27,1.46,0,1.78-.52,1.74-1.85-.08-2.68,0-5.37,0-8.06,0-1.2.46-1.59,1.58-1.57,1.84,0,3.69,0,5.53,0,1.11,0,1.63.41,1.59,1.6-.07,2,0,4,0,6,0,3.85,0,3.85,3.79,3.84,2.06,0,2.11-.05,2.11-2.14,0-6.69,0-13.38,0-20.06,0-4.95.7-4.16-4.43-4.26" transform="translate(0 0)"/><path class="cls-3" d="M176.74,30.08V25c0-4.18,0-4.15-4.2-4.1-1.26,0-1.8.42-1.78,1.75.06,3.21-.07,6.42.05,9.62.08,2.11-1,2.34-2.8,2.42s-2.36-.5-2.4-2.33l0-8.38c0-2.06-.17-2.78-1.33-3a16.39,16.39,0,0,0-2.87-.09L161,21c-.81.08-1.24.4-1.35,1.17a3.18,3.18,0,0,0,0,.56c0,.92,0,1.85,0,2.77,0,3.08,0,6.16.11,9.24a4.52,4.52,0,0,0,3.2,4.27,10.9,10.9,0,0,0,7.71-.26,4.23,4.23,0,0,1,1.89-.34c1,.1,1.9.48,2.87.65s1.37-.36,1.36-1.36c0-2.52,0-5,0-7.57" transform="translate(0 0)"/><path class="cls-3" d="M132.38,25.77c.94,0,1.28-.34,1.33-1.29.17-3.33.2-3.36-3-3.55-.95-.06-1.32-.44-1.3-1.36s0-1.9,0-3a.69.69,0,0,0-.69-.69h-2.27c-3.07,0-2.75-.43-2.68,2.65,0,1.66-.13,2.74-2.16,3.05-1.84.28-1,2-1.07,3.15s.86,1.06,1.61,1c1.28-.13,1.63.46,1.61,1.66q-.07,3.63.06,7.26a4.43,4.43,0,0,0,3.32,4.3,12.12,12.12,0,0,0,3.89.46c2.63-.07,2.66-.25,2.73-2.85,0-1.38-.26-2-1.83-1.9-1.78.12-2.42-.61-2.5-2.46,0-1.1,0-2.21,0-3.32,0-3,0-3,3-3.13" transform="translate(0 0)"/><path class="cls-3" d="M118.9,30.13V25.07c0-4.27,0-4.23-4.29-4.17-1.31,0-1.74.51-1.72,1.79.06,4,0,8,0,12,0,5-.69,4.24,4.55,4.34,1.12,0,1.47-.41,1.45-1.48-.05-2.47,0-4.95,0-7.43" transform="translate(0 0)"/><path class="cls-3" d="M116,13.15a3.19,3.19,0,0,0-3.25,3.13A3.3,3.3,0,0,0,116,19.61a3.52,3.52,0,0,0,3.23-3.26,3.41,3.41,0,0,0-3.25-3.2" transform="translate(0 0)"/><path class="cls-3" d="M197.36,27.18c-.77-5.68-4.79-8.06-10.25-6.25l-1.54.48V16.83c0-4.63,0-4.62-4.65-4.27-.9.07-1.33.38-1.33,1.33,0,8,0,15.9,0,23.85,0,.41.47,1.18.71,1.17,1.43,0,3.1.82,3.83-.54a53.1,53.1,0,0,0,6.95,1,5.33,5.33,0,0,0,5.32-3.69,16.94,16.94,0,0,0,.93-8.53M191.14,33c-.53,1.8-4,2.38-5.29,1a1.89,1.89,0,0,1-.34-1.13c0-1,0-2,0-3a19.49,19.49,0,0,0,0-2.2,2,2,0,0,1,1.7-2.48c1.86-.39,3.14,0,3.76,1.37a9,9,0,0,1,.2,6.44" transform="translate(0 0)"/><path class="cls-3" d="M24.26,19.9,4.5,8.49A3,3,0,0,0,0,11.09V33.91a3,3,0,0,0,4.5,2.6L24.26,25.1a3,3,0,0,0,0-5.2" transform="translate(0 0)"/></g></g></g></g></g></svg>