<svg xmlns="http://www.w3.org/2000/svg" xmlns:xlink="http://www.w3.org/1999/xlink" viewBox="0 0 28.57 40"><defs><style>.cls-1{fill:none;}.cls-2{clip-path:url(#clip-path);}.cls-3{fill:#fff;}</style><clipPath id="clip-path" transform="translate(0 0)"><rect class="cls-1" width="28.57" height="40"/></clipPath></defs><title>html</title><g id="Layer_2" data-name="Layer 2"><g id="belka_top" data-name="belka top"><g id="html"><g class="cls-2"><polygon class="cls-3" points="6.14 0 6.14 1.78 4.48 1.78 4.48 0 2.66 0 2.66 5.39 4.48 5.39 4.48 3.59 6.14 3.59 6.14 5.39 7.96 5.39 7.96 0 6.14 0"/><polygon class="cls-3" points="8.75 0 8.75 1.79 10.35 1.79 10.35 1.79 10.35 5.39 12.16 5.39 12.16 1.79 13.77 1.79 13.77 0 8.75 0"/><polygon class="cls-3" points="18.79 0 17.62 1.9 16.46 0 14.56 0 14.56 5.39 16.34 5.39 16.34 2.72 17.59 4.64 17.62 4.64 18.87 2.72 18.87 5.39 20.68 5.39 20.68 0 18.79 0"/><polygon class="cls-3" points="21.59 0 21.59 5.39 25.96 5.39 25.96 3.61 23.41 3.61 23.41 0 21.59 0"/><path class="cls-3" d="M5.4,14.73l-.09-1H23.23l-.09,1L23,16.52l-.07.8H9.23L9.55,21h13l-.09,1-.84,9.34-.05.6-7.32,2h0l-7.33-2-.5-5.57H10l.25,2.83,4,1.07h0l4-1.07.42-4.6H6.28ZM0,7.86,2.6,36.79,14.27,40,26,36.78l2.6-28.92Z" transform="translate(0 0)"/></g></g></g></g></svg>