<svg xmlns="http://www.w3.org/2000/svg" xmlns:xlink="http://www.w3.org/1999/xlink" viewBox="0 0 177.78 40"><defs><style>.cls-1{fill:none;}.cls-2{clip-path:url(#clip-path);}.cls-3{fill:#fff;}</style><clipPath id="clip-path" transform="translate(0 0)"><rect class="cls-1" width="177.78" height="40"/></clipPath></defs><title>jquery</title><g id="Layer_2" data-name="Layer 2"><g id="belka_top" data-name="belka top"><g id="jquery"><g class="cls-2"><g class="cls-2"><path class="cls-3" d="M3.35,9.45,3.5,9C3.42,9,4.12,7.91,4,7.91c-5.19,5-4.74,11.63-2.24,16.42a18.68,18.68,0,0,0,8.72,8.15,17.83,17.83,0,0,0,7.26,1.44c6-.12,10.26-2.95,12.65-7.55l.14-.36a14.78,14.78,0,0,1-8.23,3.84C11.14,31-.39,21,3.35,9.45" transform="translate(0 0)"/><path class="cls-3" d="M18.22,11.15a7.79,7.79,0,0,0,8.72,3.5A8.83,8.83,0,0,0,31,11.54c-3.78,2.55-6.13,1.69-7.24,1.37a7.13,7.13,0,0,1-1.34-.64,6.69,6.69,0,0,1-2.66-2.33,9.28,9.28,0,0,1-1.17-2.52,7.88,7.88,0,0,1,.32-4.19c-1.71,1.51-2,4.43-1.4,6.37a10.72,10.72,0,0,0,.7,1.56" transform="translate(0 0)"/><path class="cls-3" d="M11.2,7.79A8.69,8.69,0,0,1,12.27,4.7c-2.09,2.61-3.36,4.76-3,8.36C9.75,18,14.48,23,19.43,23.61c5.92.78,10.34-1.68,11.86-5.51a10.77,10.77,0,0,1-7.51,3.12c-6.3,0-13.38-5.63-12.59-13.42" transform="translate(0 0)"/><path class="cls-3" d="M170.31,3,159.62,17.62l-1-3.84h-7s.7,3.49,1.21,5.27,1.41,3.52,1.45,5.27a27.56,27.56,0,0,1-1,5.79l6.83,0a37.14,37.14,0,0,1,1.45-5.27,8.63,8.63,0,0,1,1.21-1.68L177.78,3Z" transform="translate(0 0)"/><path class="cls-3" d="M156.18,6.88c-1.5-.89-5.07-.51-8.12-.51h-4.73c-3,0-4.71-.19-5,.94-.93,3.5-4.84,22.77-4.84,22.77h6.3l4.12-17.74h3.39c3.92,0,11.13-.11,11.13-.11s-.85-4.54-2.22-5.36" transform="translate(0 0)"/><path class="cls-3" d="M132.08,8.77c-1.32-1.82-4-2.45-5.81-2.64-4.75-.48-8.71.78-10.89,2.4A10,10,0,0,0,113.68,10a8.24,8.24,0,0,0-.53.66c-.14.2-.31.33-.44.54s-.41.87-.67,1.38-.39.88-.54,1.26c-1.31,3.25-2.65,9.3-1.45,12.46a6.21,6.21,0,0,0,.71,1.24c.17.23.32.49.5.68a5.36,5.36,0,0,0,2.66,1.44c5.25,1.24,15.74.72,15.74.72l1.29-5.64a92.44,92.44,0,0,1-11-.12,5.52,5.52,0,0,1-2.77-.8c-.66-.57-1.44-1.92-.87-2.8.4-.63,2-.44,3.39-.48,4.37-.13,12.35,0,12.35,0s1.53-6.73.73-9.59a8,8,0,0,0-.73-2.16m-5.21,6.75-9.38-.06s-.11-4,5.36-3.84c1.94.06,2.62.32,3.35,1.45a3.71,3.71,0,0,1,.67,2.46" transform="translate(0 0)"/><path class="cls-3" d="M103.93,6.35l-4.36,18s-2.41,0-3.15,0c-2.32-.05-3.09-.13-3.63-1.2s0-2.56.24-4.07c.74-4.24,2.53-12.74,2.53-12.74l-6.32.06S88,11.83,87.47,14.5c-.81,3.77-2.53,9.33-.73,12.71S93,30.08,97.88,30.08h7C106.63,22.29,110,6.32,110,6.32Z" transform="translate(0 0)"/><path class="cls-3" d="M83.84,9a10.42,10.42,0,0,0-4.07-6.81c-.08,0-.43-.32-.53-.38A15.45,15.45,0,0,0,73.91.12c-8.24-.84-13.15,2.79-16,7.67A24.52,24.52,0,0,0,55.51,14a22.15,22.15,0,0,0-.73,8.15,10.38,10.38,0,0,0,2.42,5.27c3.21,3.31,9.5,2.88,16.22,2.88,2.06,0,7,0,8.49-.08.48,0,1.86-5.59,1.74-5.77s-1.77.06-3.64-.11C81.86,19.55,84.53,14,83.84,9m-8.47,8.87c-.61,2.14-1.21,4.31-1.94,6.23-4.89,0-9.44.63-10.9-2.4-.82-1.71-.45-4,0-6.23.61-3,1.19-5.11,2.91-7a8.12,8.12,0,0,1,8.23-1.92,5.77,5.77,0,0,1,3.15,4.55c.12,2-.81,4.46-1.45,6.71" transform="translate(0 0)"/><path class="cls-3" d="M46.07,12.11h6.78c.43-1.81.84-3.89,1.24-5.72-2.38,0-4.4,0-6.57,0-.53,1.75-.93,3.74-1.45,5.75" transform="translate(0 0)"/><path class="cls-3" d="M43.16,24.81c-1,4.66-1.13,9.49-6.29,8.87-.49,1.8-1.12,4.21-1.68,6.21a49.24,49.24,0,0,0,5.79,0,9.33,9.33,0,0,0,3.39-1c.17-.16.28-.08.48-.24,2.25-1.74,2.8-4.14,3.63-7.43,1.33-5.26,3-12.82,3.87-17.5H45.82c-.33,1.08-2.08,8.34-2.66,11" transform="translate(0 0)"/></g></g></g></g></g></svg>