<svg xmlns="http://www.w3.org/2000/svg" xmlns:xlink="http://www.w3.org/1999/xlink" viewBox="0 0 40 40"><defs><style>.cls-1{fill:none;}.cls-2{clip-path:url(#clip-path);}.cls-3{fill:#fff;}</style><clipPath id="clip-path" transform="translate(0 0)"><rect class="cls-1" width="40" height="40"/></clipPath></defs><title>js</title><g id="Layer_2" data-name="Layer 2"><g id="belka_top" data-name="belka top"><g id="js"><g class="cls-2"><g class="cls-2"><path class="cls-3" d="M0,40H40V0H0Zm21.77-8.8c0,3.89-2.28,5.67-5.61,5.67a5.83,5.83,0,0,1-5.64-3.44h0l3.06-1.85c.59,1,1.13,1.93,2.42,1.93s2-.48,2-2.36V18.36h3.76Zm8.89,5.67A7.22,7.22,0,0,1,23.81,33l3.06-1.77a4.09,4.09,0,0,0,3.71,2.28c1.56,0,2.55-.78,2.55-1.85,0-1.29-1-1.75-2.74-2.5l-.94-.4c-2.71-1.15-4.51-2.6-4.51-5.67,0-2.82,2.15-5,5.5-5a5.55,5.55,0,0,1,5.34,3L32.86,23a2.56,2.56,0,0,0-2.42-1.61A1.64,1.64,0,0,0,28.64,23c0,1.13.7,1.58,2.31,2.28l.94.4c3.2,1.37,5,2.77,5,5.91,0,3.38-2.66,5.24-6.23,5.24" transform="translate(0 0)"/></g></g></g></g></g></svg>