<svg xmlns="http://www.w3.org/2000/svg" xmlns:xlink="http://www.w3.org/1999/xlink" viewBox="0 0 375.88 34.65"><defs><style>.cls-1{fill:none;}.cls-2{clip-path:url(#clip-path);}.cls-3{clip-path:url(#clip-path-2);}.cls-4{fill:#fff;}</style><clipPath id="clip-path" transform="translate(0 0)"><rect class="cls-1" width="375.88" height="34.66"/></clipPath><clipPath id="clip-path-2" transform="translate(0 0)"><rect class="cls-1" width="51.98" height="34.65"/></clipPath></defs><title>mail</title><g id="Layer_2" data-name="Layer 2"><g id="belka_top" data-name="belka top"><g id="mail"><g class="cls-2"><g class="cls-3"><path class="cls-4" d="M0,34.66H52V0H0ZM43.44,4.33,27.33,14a2.6,2.6,0,0,1-2.67,0L8.54,4.33Zm-39.11,26V6.83L24.7,18.45a2.6,2.6,0,0,0,2.58,0L47.65,6.83v23.5Z" transform="translate(0 0)"/></g><polygon class="cls-4" points="87.65 26.93 83.89 26.93 77.54 18.72 76.41 19.82 76.41 26.93 73.55 26.93 73.55 3.23 76.41 3.23 76.41 17.11 83.14 9.92 86.7 9.92 79.71 17.03 87.65 26.93"/><g class="cls-2"><path class="cls-4" d="M102.8,18.43a9.68,9.68,0,0,1-2.07,6.63,7,7,0,0,1-5.51,2.34A6.91,6.91,0,0,1,89.64,25a9.86,9.86,0,0,1-2-6.56,9.65,9.65,0,0,1,2.09-6.62,7.64,7.64,0,0,1,11,0,9.71,9.71,0,0,1,2.07,6.63m-3,0a8.19,8.19,0,0,0-1.2-4.91,4.48,4.48,0,0,0-6.88,0,8.15,8.15,0,0,0-1.21,4.91,8.15,8.15,0,0,0,1.21,4.85,4.42,4.42,0,0,0,6.87,0,8.12,8.12,0,0,0,1.21-4.88" transform="translate(0 0)"/><path class="cls-4" d="M119.11,26.93h-2.86V17.25a19.33,19.33,0,0,0-.11-2.19,4.65,4.65,0,0,0-.43-1.62,2.24,2.24,0,0,0-1-1,3.87,3.87,0,0,0-1.71-.31,4.87,4.87,0,0,0-2.2.57,11.27,11.27,0,0,0-2.22,1.48v12.7h-2.86v-17h2.86v1.89a11.24,11.24,0,0,1,2.53-1.75,5.93,5.93,0,0,1,2.63-.61,4.9,4.9,0,0,1,3.93,1.65,7.16,7.16,0,0,1,1.42,4.79Z" transform="translate(0 0)"/><path class="cls-4" d="M128.28,27.27a4.89,4.89,0,0,1-3.66-1.33,5.82,5.82,0,0,1-1.31-4.21V12.3h-1.93V9.92h1.93V5h2.86V9.92h5.27V12.3h-5.27v8.09q0,1.29,0,2a3.4,3.4,0,0,0,.35,1.31,1.67,1.67,0,0,0,.84.8,3.82,3.82,0,0,0,1.57.27,4.51,4.51,0,0,0,1.36-.2,8.12,8.12,0,0,0,.94-.34h.17v2.57a14,14,0,0,1-1.64.36,10,10,0,0,1-1.53.13" transform="translate(0 0)"/><path class="cls-4" d="M143.07,25.12l-.94.72a6.58,6.58,0,0,1-1.13.74,8.5,8.5,0,0,1-1.47.61,7.23,7.23,0,0,1-2,.21,5.15,5.15,0,0,1-3.66-1.51,5.18,5.18,0,0,1-1.1-1.73,6.22,6.22,0,0,1,.34-5.18,5.09,5.09,0,0,1,2.36-2,11.72,11.72,0,0,1,3.38-.9q1.95-.25,4.2-.37v-.55a3.68,3.68,0,0,0-.31-1.62,2.25,2.25,0,0,0-.85-1,3.34,3.34,0,0,0-1.34-.47,11.42,11.42,0,0,0-1.63-.11,11,11,0,0,0-2.33.3,15.71,15.71,0,0,0-2.68.86h-.17V10.29q.79-.23,2.27-.5A16,16,0,0,1,139,9.51a13.53,13.53,0,0,1,3,.27,5.69,5.69,0,0,1,2.16,1,4.25,4.25,0,0,1,1.39,1.81,7.17,7.17,0,0,1,.46,2.71V26.93h-2.85Zm0-2.37V18l-2.58.25a14,14,0,0,0-2.52.45,4.6,4.6,0,0,0-1.89,1.07,2.68,2.68,0,0,0-.75,2,2.83,2.83,0,0,0,.82,2.21,3.47,3.47,0,0,0,2.41.75,5.11,5.11,0,0,0,2.45-.59,10.64,10.64,0,0,0,2.06-1.44" transform="translate(0 0)"/><polygon class="cls-4" points="164.04 26.93 160.28 26.93 153.93 18.72 152.8 19.82 152.8 26.93 149.94 26.93 149.94 3.23 152.8 3.23 152.8 17.11 159.53 9.92 163.09 9.92 156.1 17.03 164.04 26.93"/><path class="cls-4" d="M170.62,27.27A4.89,4.89,0,0,1,167,25.93a5.82,5.82,0,0,1-1.31-4.21V12.3h-1.93V9.92h1.93V5h2.86V9.92h5.27V12.3h-5.27v8.09q0,1.29,0,2a3.4,3.4,0,0,0,.35,1.31,1.67,1.67,0,0,0,.84.8,3.82,3.82,0,0,0,1.57.27,4.51,4.51,0,0,0,1.36-.2,8.12,8.12,0,0,0,.94-.34h.17v2.57a14,14,0,0,1-1.64.36,10,10,0,0,1-1.53.13" transform="translate(0 0)"/><path class="cls-4" d="M200.32,16.84a14.48,14.48,0,0,1-.58,4.09,13.43,13.43,0,0,1-1.66,3.62h-6.41l-.38-1.77a14.09,14.09,0,0,1-1.88,1.38,4.58,4.58,0,0,1-2.34.51,4.68,4.68,0,0,1-3.84-1.88,8.62,8.62,0,0,1-1.49-5.46,7.92,7.92,0,0,1,1.84-5.57,5.57,5.57,0,0,1,4.2-2,5.79,5.79,0,0,1,1.89.27,9.7,9.7,0,0,1,1.6.73V10h2.42V22.85h3.46A8.6,8.6,0,0,0,198,20a21.71,21.71,0,0,0,.25-3.12,12.1,12.1,0,0,0-2.54-8,9,9,0,0,0-7.29-3A9.54,9.54,0,0,0,181,9.15a11.52,11.52,0,0,0-2.93,8,11.59,11.59,0,0,0,2.85,8.14,9.62,9.62,0,0,0,7.45,3.11,21.45,21.45,0,0,0,2.6-.17,15.61,15.61,0,0,0,2.58-.53v2.16a18.58,18.58,0,0,1-2.6.43q-1.32.12-2.6.12a11.81,11.81,0,0,1-8.92-3.7,13.32,13.32,0,0,1-3.53-9.59,13.16,13.16,0,0,1,3.65-9.43,11.79,11.79,0,0,1,8.88-3.84,11.05,11.05,0,0,1,8.77,3.62,13.76,13.76,0,0,1,3.17,9.4m-9.09,3.88V12.83a7.81,7.81,0,0,0-1.57-.63,5.79,5.79,0,0,0-1.49-.19,3.4,3.4,0,0,0-2.77,1.29,6.23,6.23,0,0,0-1.05,4,7.22,7.22,0,0,0,.79,3.73,2.74,2.74,0,0,0,2.53,1.29,4.13,4.13,0,0,0,1.83-.44,8.17,8.17,0,0,0,1.73-1.14" transform="translate(0 0)"/><path class="cls-4" d="M218.53,18a10.47,10.47,0,0,1-2,6.77,6.33,6.33,0,0,1-5.14,2.52,7.87,7.87,0,0,1-2.24-.29,8.8,8.8,0,0,1-2-.9v7.13h-2.86V9.92h2.86V11.7a10.52,10.52,0,0,1,2.37-1.61,6.3,6.3,0,0,1,2.84-.65,5.27,5.27,0,0,1,4.56,2.32A10.57,10.57,0,0,1,218.53,18m-3,.32a9.09,9.09,0,0,0-.93-4.51,3.22,3.22,0,0,0-3-1.61,5.42,5.42,0,0,0-2.35.54,10.24,10.24,0,0,0-2.15,1.39v9.64a10.1,10.1,0,0,0,1.93.75,7.66,7.66,0,0,0,1.84.2,4.09,4.09,0,0,0,3.46-1.63,7.81,7.81,0,0,0,1.23-4.77" transform="translate(0 0)"/><path class="cls-4" d="M231,25.12l-.94.72a6.58,6.58,0,0,1-1.13.74,8.5,8.5,0,0,1-1.47.61,7.23,7.23,0,0,1-2,.21,5.15,5.15,0,0,1-3.66-1.51,5.18,5.18,0,0,1-1.1-1.73,6.22,6.22,0,0,1,.34-5.18,5.09,5.09,0,0,1,2.36-2,11.72,11.72,0,0,1,3.38-.9q1.95-.25,4.2-.37v-.55a3.68,3.68,0,0,0-.31-1.62,2.25,2.25,0,0,0-.85-1,3.34,3.34,0,0,0-1.34-.47,11.42,11.42,0,0,0-1.63-.11,11,11,0,0,0-2.33.3,15.71,15.71,0,0,0-2.68.86h-.17V10.29q.79-.23,2.27-.5a16,16,0,0,1,2.93-.27,13.53,13.53,0,0,1,3,.27,5.69,5.69,0,0,1,2.16,1,4.25,4.25,0,0,1,1.39,1.81,7.17,7.17,0,0,1,.46,2.71V26.93H231Zm0-2.37V18l-2.58.25a14,14,0,0,0-2.52.45A4.6,4.6,0,0,0,224,19.8a2.68,2.68,0,0,0-.75,2,2.83,2.83,0,0,0,.82,2.21,3.47,3.47,0,0,0,2.41.75,5.11,5.11,0,0,0,2.45-.59A10.64,10.64,0,0,0,231,22.74" transform="translate(0 0)"/><path class="cls-4" d="M243,27.27a4.89,4.89,0,0,1-3.66-1.33,5.82,5.82,0,0,1-1.31-4.21V12.3h-1.93V9.92h1.93V5h2.86V9.92h5.27V12.3h-5.27v8.09q0,1.29,0,2a3.4,3.4,0,0,0,.35,1.31,1.67,1.67,0,0,0,.84.8,3.82,3.82,0,0,0,1.57.27,4.51,4.51,0,0,0,1.36-.2,8.12,8.12,0,0,0,.94-.34h.17v2.57a14,14,0,0,1-1.64.36,10,10,0,0,1-1.53.13" transform="translate(0 0)"/><path class="cls-4" d="M257.32,13h-.15a3.19,3.19,0,0,0-.68-.11l-.86,0a5.67,5.67,0,0,0-2.3.5,7.36,7.36,0,0,0-2.16,1.49V26.93H248.3v-17h2.86v2.53a13.05,13.05,0,0,1,2.73-2,5.12,5.12,0,0,1,2.26-.57c.29,0,.51,0,.66,0l.5.07Z" transform="translate(0 0)"/><polygon class="cls-4" points="272.91 9.92 263.76 33.21 260.7 33.21 263.75 26.11 257.56 9.92 260.65 9.92 265.3 22.52 269.93 9.92 272.91 9.92"/><polygon class="cls-4" points="289.18 26.93 285.42 26.93 279.07 18.72 277.94 19.82 277.94 26.93 275.08 26.93 275.08 3.23 277.94 3.23 277.94 17.11 284.67 9.92 288.24 9.92 281.24 17.03 289.18 26.93"/><path class="cls-4" d="M295.21,27.34a10.78,10.78,0,0,1-3.19-.46,14.09,14.09,0,0,1-2.46-1V22.7h.15q.36.29.86.64a8.46,8.46,0,0,0,1.32.73,12.14,12.14,0,0,0,1.61.59,6.38,6.38,0,0,0,1.82.26,7.24,7.24,0,0,0,1.46-.16,3.52,3.52,0,0,0,1.16-.4,2.41,2.41,0,0,0,.77-.75,2.37,2.37,0,0,0,.23-1.19,2,2,0,0,0-.55-1.54,4.58,4.58,0,0,0-2-.87q-.55-.14-1.43-.32t-1.63-.4a5.2,5.2,0,0,1-2.83-1.74,4.63,4.63,0,0,1-.88-2.86A4.65,4.65,0,0,1,291.37,11,7,7,0,0,1,296,9.51a11.92,11.92,0,0,1,2.85.35,10,10,0,0,1,2.41.88V13.8h-.15a8.94,8.94,0,0,0-2.44-1.37,7.73,7.73,0,0,0-2.72-.5,4.52,4.52,0,0,0-2.39.59,2,2,0,0,0-1,1.8,2,2,0,0,0,.58,1.59,4.45,4.45,0,0,0,1.86.86c.43.11.9.22,1.42.33s1.07.23,1.65.37A5.37,5.37,0,0,1,300.91,19a4.4,4.4,0,0,1,1,3,5.09,5.09,0,0,1-.43,2.08,4.58,4.58,0,0,1-1.27,1.68,6.49,6.49,0,0,1-2.06,1.16,9,9,0,0,1-2.89.4" transform="translate(0 0)"/><path class="cls-4" d="M309.68,27.27A4.89,4.89,0,0,1,306,25.93a5.82,5.82,0,0,1-1.31-4.21V12.3h-1.93V9.92h1.93V5h2.86V9.92h5.27V12.3h-5.27v8.09q0,1.29,0,2a3.4,3.4,0,0,0,.35,1.31,1.67,1.67,0,0,0,.84.8,3.82,3.82,0,0,0,1.57.27,4.51,4.51,0,0,0,1.36-.2,8.12,8.12,0,0,0,.94-.34h.17v2.57a14,14,0,0,1-1.64.36,10,10,0,0,1-1.53.13" transform="translate(0 0)"/><path class="cls-4" d="M328.21,26.93h-2.86V25a12.48,12.48,0,0,1-2.51,1.76,5.79,5.79,0,0,1-2.65.6,5.94,5.94,0,0,1-2.09-.37,4.38,4.38,0,0,1-1.71-1.16,5.47,5.47,0,0,1-1.14-2,9.29,9.29,0,0,1-.4-2.92v-11h2.86v9.69a21,21,0,0,0,.1,2.25,4.4,4.4,0,0,0,.45,1.56,2.2,2.2,0,0,0,1,1,3.91,3.91,0,0,0,1.73.31,5,5,0,0,0,2.24-.59,10.24,10.24,0,0,0,2.18-1.46V9.92h2.86Z" transform="translate(0 0)"/><path class="cls-4" d="M337,27.34a10.78,10.78,0,0,1-3.19-.46,14.09,14.09,0,0,1-2.46-1V22.7h.15q.36.29.86.64a8.46,8.46,0,0,0,1.32.73,12.14,12.14,0,0,0,1.61.59,6.38,6.38,0,0,0,1.82.26,7.24,7.24,0,0,0,1.46-.16,3.52,3.52,0,0,0,1.16-.4,2.41,2.41,0,0,0,.77-.75,2.37,2.37,0,0,0,.23-1.19,2,2,0,0,0-.55-1.54,4.58,4.58,0,0,0-2-.87q-.55-.14-1.43-.32t-1.63-.4a5.2,5.2,0,0,1-2.83-1.74,4.63,4.63,0,0,1-.88-2.86A4.65,4.65,0,0,1,333.12,11a7,7,0,0,1,4.61-1.45,11.92,11.92,0,0,1,2.85.35,10,10,0,0,1,2.41.88V13.8h-.15a8.94,8.94,0,0,0-2.44-1.37,7.73,7.73,0,0,0-2.72-.5,4.52,4.52,0,0,0-2.39.59,2,2,0,0,0-1,1.8,2,2,0,0,0,.58,1.59,4.45,4.45,0,0,0,1.86.86c.43.11.9.22,1.42.33s1.07.23,1.65.37A5.37,5.37,0,0,1,342.66,19a4.4,4.4,0,0,1,1,3,5.09,5.09,0,0,1-.43,2.08,4.58,4.58,0,0,1-1.27,1.68,6.49,6.49,0,0,1-2.06,1.16,9,9,0,0,1-2.89.4" transform="translate(0 0)"/><rect class="cls-4" x="347.1" y="22.59" width="3.64" height="4.34"/><path class="cls-4" d="M370,18a10.47,10.47,0,0,1-2,6.77,6.33,6.33,0,0,1-5.14,2.52,7.87,7.87,0,0,1-2.24-.29,8.8,8.8,0,0,1-2-.9v7.13h-2.86V9.92h2.86V11.7a10.52,10.52,0,0,1,2.37-1.61,6.3,6.3,0,0,1,2.84-.65,5.27,5.27,0,0,1,4.56,2.32A10.57,10.57,0,0,1,370,18m-3,.32a9.09,9.09,0,0,0-.93-4.51,3.22,3.22,0,0,0-3-1.61,5.42,5.42,0,0,0-2.35.54,10.24,10.24,0,0,0-2.15,1.39v9.64a10.1,10.1,0,0,0,1.93.75,7.66,7.66,0,0,0,1.84.2,4.09,4.09,0,0,0,3.46-1.63A7.81,7.81,0,0,0,367,18.3" transform="translate(0 0)"/><rect class="cls-4" x="373.02" y="3.23" width="2.86" height="23.7"/></g></g></g></g></g></svg>