<svg xmlns="http://www.w3.org/2000/svg" xmlns:xlink="http://www.w3.org/1999/xlink" viewBox="0 0 76.19 40"><defs><style>.cls-1{fill:none;}.cls-2{clip-path:url(#clip-path);}.cls-3{fill:#fff;fill-rule:evenodd;}</style><clipPath id="clip-path" transform="translate(0 0)"><rect class="cls-1" width="76.19" height="40"/></clipPath></defs><title>php</title><g id="Layer_2" data-name="Layer 2"><g id="belka_top" data-name="belka top"><g id="php"><g class="cls-2"><g class="cls-2"><path class="cls-3" d="M22.25,14.91H19.75l-1.4,7.2h1.94a5.92,5.92,0,0,0,3.58-.87,4.75,4.75,0,0,0,1.53-3,3.2,3.2,0,0,0-.25-2.64c-.3-.33-1-.72-2.88-.72" transform="translate(0 0)"/><path class="cls-3" d="M56.4,14.91H53.89l-1.4,7.2h1.94A5.92,5.92,0,0,0,58,21.24a4.75,4.75,0,0,0,1.53-3,3.2,3.2,0,0,0-.25-2.64c-.3-.33-1-.72-2.88-.72" transform="translate(0 0)"/><path class="cls-3" d="M38.1,0C17.06,0,0,9,0,20S17.06,40,38.1,40s38.1-9,38.1-20S59.13,0,38.1,0m2,26.25a.59.59,0,0,1-.12-.49l1.73-8.87c.21-1.1,0-1.45-.07-1.55S41.12,15,39.85,15h-3L34.73,26a.6.6,0,0,1-.58.48H29.8a.59.59,0,0,1-.58-.71l.78-4A9.62,9.62,0,0,1,28.15,24,8.35,8.35,0,0,1,25,25.92a14.09,14.09,0,0,1-4.27.55H17.5l-.94,4.85a.6.6,0,0,1-.58.48H11.59a.59.59,0,0,1-.58-.71l3.9-20a.59.59,0,0,1,.58-.48h8.41c2.7,0,4.71.74,6,2.19a5.56,5.56,0,0,1,1.3,2.86l1.93-9.9a.6.6,0,0,1,.58-.48H38a.59.59,0,0,1,.58.71l-.9,4.62h3.14c2.61,0,4.39.47,5.44,1.43s1.42,2.56,1,4.67L45.51,26a.6.6,0,0,1-.58.48H40.52a.6.6,0,0,1-.46-.22M65,18.81A9.3,9.3,0,0,1,62,24a8.35,8.35,0,0,1-3.13,1.87,14.09,14.09,0,0,1-4.27.55H51.4l-.94,4.85a.6.6,0,0,1-.58.48H45.49a.59.59,0,0,1-.58-.71l3.9-20a.59.59,0,0,1,.58-.48h8.41c2.7,0,4.71.74,6,2.19s1.68,3.5,1.18,6.06" transform="translate(0 0)"/></g></g></g></g></g></svg>