<svg xmlns="http://www.w3.org/2000/svg" xmlns:xlink="http://www.w3.org/1999/xlink" viewBox="0 0 40 40"><defs><style>.cls-1{fill:none;}.cls-2{clip-path:url(#clip-path);}.cls-3{fill:#fff;}</style><clipPath id="clip-path" transform="translate(0 0)"><rect class="cls-1" width="40" height="40"/></clipPath></defs><title>ps</title><g id="Layer_2" data-name="Layer 2"><g id="belka_top" data-name="belka top"><g id="Artwork_2" data-name="Artwork 2"><g class="cls-2"><g class="cls-2"><path class="cls-3" d="M0,38.58V1.42A1.41,1.41,0,0,1,1.39,0H38.61A1.41,1.41,0,0,1,40,1.42V38.58A1.41,1.41,0,0,1,38.61,40H1.39A1.41,1.41,0,0,1,0,38.58m12.22-8.94V22.41a40.35,40.35,0,0,0,4.84-.61A6.11,6.11,0,0,0,22,14.89c-.26-3.12-2.32-5.21-5.76-5.52-2-.18-4,0-6.06,0-1.24,0-1.66.56-1.64,1.85.06,5.67,0,12.74,0,18.41m22.6-11.72c1.18-2.2,1-2.73-1.32-3a10.33,10.33,0,0,0-4.08.24,4,4,0,0,0-3,3.7,4,4,0,0,0,2.37,4.13c.71.39,1.49.64,2.22,1,.91.42,2.06,1,1.49,2.13a3.1,3.1,0,0,1-2.37,1.19,13.1,13.1,0,0,1-3.32-.74c-1.14,2.54-1,3.06,1.62,3.36a13.59,13.59,0,0,0,4.6-.23,4,4,0,0,0,3.22-3.88A4.22,4.22,0,0,0,30,21.5a28.1,28.1,0,0,1-2.82-1.33,1.92,1.92,0,0,1-.8-1.52,1.79,1.79,0,0,1,1.32-1.09,21.15,21.15,0,0,1,3.41.36" transform="translate(0 0)"/><path class="cls-3" d="M12.2,12.25a26.87,26.87,0,0,1,3.1,0,3.17,3.17,0,0,1,2.92,3,3.42,3.42,0,0,1-2.42,3.65,6.94,6.94,0,0,1-1.36.29c-2,.22-2.23,0-2.24-2,0-1.58,0-3.16,0-5" transform="translate(0 0)"/></g></g></g></g></g></svg>